<svg xmlns="http://www.w3.org/2000/svg" aria-hidden="true">
  <defs>
    <symbol id="i-pattern" viewBox="0 0 24 24"><path d="M5 4.5h6v6H5zM13 13.5h6v6h-6zM13 4.5h6v6h-6M5 13.5h6v6H5" fill="none" stroke="currentColor" stroke-width="1.7" stroke-linejoin="round"/></symbol>
    <symbol id="i-doodle" viewBox="0 0 24 24"><path d="M5 16.5c2.2-6.3 4.5-8.9 6.7-7.8 2.1 1.1-.7 5.9 1.5 6.8 2.3.9 3.9-3.7 5.8-5.3M5 19h14" fill="none" stroke="currentColor" stroke-width="1.7" stroke-linecap="round" stroke-linejoin="round"/></symbol>
    <symbol id="i-open" viewBox="0 0 24 24"><path d="M4.5 8.5h6l1.8 2h7.2v8H4.5zM7 5.5h5l1.6 2H19" fill="none" stroke="currentColor" stroke-width="1.7" stroke-linejoin="round"/><path d="M12 16V9.5m0 0-2.5 2.5M12 9.5l2.5 2.5" fill="none" stroke="currentColor" stroke-width="1.7" stroke-linecap="round"/></symbol>
    <symbol id="i-gallery" viewBox="0 0 24 24"><path d="M9 5 4 12l5 7M5 12h15" fill="none" stroke="currentColor" stroke-width="1.8" stroke-linecap="round" stroke-linejoin="round"/></symbol>
    <symbol id="i-undo" viewBox="0 0 24 24"><path d="M9 7 4.5 11 9 15M5 11h7.5c4 0 6.5 2.2 6.5 6" fill="none" stroke="currentColor" stroke-width="1.8" stroke-linecap="round" stroke-linejoin="round"/></symbol>
    <symbol id="i-redo" viewBox="0 0 24 24"><path d="m15 7 4.5 4L15 15m4-4h-7.5C7.5 11 5 13.2 5 17" fill="none" stroke="currentColor" stroke-width="1.8" stroke-linecap="round" stroke-linejoin="round"/></symbol>
    <symbol id="i-select" viewBox="0 0 24 24"><path d="M6 4.5v15M6 4.5h12M6 19.5h7M18 4.5v7" fill="none" stroke="currentColor" stroke-width="1.7" stroke-linecap="round"/><path d="m13.5 13 5.8 2.1-2.4 1.2-1.1 2.6z" fill="none" stroke="currentColor" stroke-width="1.6" stroke-linejoin="round"/></symbol>
    <symbol id="i-brush" viewBox="0 0 24 24"><path d="m7 15.5 8.8-9a2 2 0 0 1 2.9 2.8l-8.9 8.9" fill="none" stroke="currentColor" stroke-width="1.7" stroke-linecap="round"/><path d="M9.8 18.2c-1.6 1.9-3.8 2.3-5.5.9 1.8-.2 1-2.1 2.8-3.6a2.5 2.5 0 0 1 2.7 2.7Z" fill="none" stroke="currentColor" stroke-width="1.7" stroke-linejoin="round"/></symbol>
    <symbol id="i-eraser" viewBox="0 0 24 24"><path d="m6.2 15.6 7.9-9.2a2 2 0 0 1 3-.1l1.6 1.5a2 2 0 0 1 .1 2.9l-7.6 8.8H7.8l-2-1.8a1.5 1.5 0 0 1 .4-2.1Z" fill="none" stroke="currentColor" stroke-width="1.7" stroke-linejoin="round"/><path d="m11.5 9.5 5 4.4M11.2 19.5H20" fill="none" stroke="currentColor" stroke-width="1.7" stroke-linecap="round"/></symbol>
    <symbol id="i-fill" viewBox="0 0 24 24"><path d="m5 13 7-7 6 6-7 7H7z" fill="none" stroke="currentColor" stroke-width="1.7" stroke-linejoin="round"/><path d="M8.3 9.7 14 15.4M16.8 17.2c.8-1.7 1.7-2.7 2.5-2.7s1.7 1 2.5 2.7c0 1.3-1.1 2.3-2.5 2.3s-2.5-1-2.5-2.3Z" fill="none" stroke="currentColor" stroke-width="1.7" stroke-linejoin="round"/></symbol>
    <symbol id="i-pan" viewBox="0 0 24 24"><path d="M8.2 11.2V7.7a1.5 1.5 0 0 1 3 0v2.8-4a1.5 1.5 0 0 1 3 0v4-2.7a1.5 1.5 0 0 1 3 0v4.3-1.6a1.5 1.5 0 0 1 3 0v4.1c0 3.4-2.6 5.9-6 5.9h-1.5c-2.2 0-3.8-.8-5-2.4l-3-4a1.6 1.6 0 0 1 2.4-2.1l1.1.9Z" fill="none" stroke="currentColor" stroke-width="1.65" stroke-linecap="round" stroke-linejoin="round"/></symbol>
    <symbol id="i-preview" viewBox="0 0 24 24"><path d="M3.8 12s3-5.2 8.2-5.2S20.2 12 20.2 12 17.2 17.2 12 17.2 3.8 12 3.8 12Z" fill="none" stroke="currentColor" stroke-width="1.7"/><circle cx="12" cy="12" r="2.4" fill="none" stroke="currentColor" stroke-width="1.7"/></symbol>
  </defs>
</svg>